<?xml version="1.0" encoding="iso-8859-1"?>
<!-- Generator: Adobe Illustrator 19.0.0, SVG Export Plug-In . SVG Version: 6.00 Build 0)  -->
<svg xmlns="http://www.w3.org/2000/svg" xmlns:xlink="http://www.w3.org/1999/xlink" version="1.1" id="Capa_1" x="0px" y="0px" viewBox="0 0 512.002 512.002" style="enable-background:new 0 0 512.002 512.002;" xml:space="preserve" width="512px" height="512px">
<g>
	<g>
		<path d="M494.719,157.197C494.66,157.196,494.777,157.197,494.719,157.197l-99.406-0.159c-4.14-0.006-7.5,3.344-7.508,7.483    c-0.006,4.114,3.304,7.46,7.408,7.507c0.025,0,0.051,0.001,0.075,0.001l99.232,0.158c0.009,0,0.017-0.001,0.025-0.001    c1.365,0.016,2.47,1.134,2.468,2.502l-0.434,272.916c-0.001,0.899-0.46,1.492-0.734,1.764c-0.275,0.273-0.868,0.73-1.768,0.729    H196.103c-4.14-0.006-7.5,2.871-7.508,7.01c-0.006,4.114,3.304,7.933,7.408,7.98c0.025,0,0.051,0,0.075,0h298.64    c9.643,0.014,17.269-7.818,17.284-17.459V174.711h0.001C512.016,165.127,504.279,157.307,494.719,157.197z" fill="#ff3399"/>
	</g>
</g>
<g>
	<g>
		<path d="M361.232,156.986c-0.03,0-0.062-0.001-0.092,0l-243.223,0.13l0.081-51.347c0.025-15.696-6.064-30.461-17.145-41.577    C89.911,53.215,75.398,47.095,59.922,46.918c-0.196-0.002-0.395-0.004-0.591-0.004c-15.696-0.025-30.461,6.065-41.578,17.145    C6.639,75.142,0.027,89.888,0.002,105.584v30.467c-0.006,4.114,3.732,7.46,7.836,7.507c0.025,0,0.051,0.001,0.076,0.001    c4.139,0.006,7.133-3.344,7.14-7.484v-30.467c0.018-11.693,5.003-22.677,13.283-30.931c8.28-8.255,19.279-12.79,30.97-12.771    c0.147,0,0.294,0,0.441,0.002C71.274,62.04,82.087,66.6,90.237,74.775c8.254,8.28,12.789,19.279,12.77,30.97l-0.414,260.764    c-0.716-0.8-1.452-1.589-2.216-2.355c-11.082-11.117-25.837-17.278-41.522-17.277c-17.373-0.027-33.016,7.534-43.802,19.542    v-196.19c0.006-4.114-2.992-7.46-7.096-7.507c-0.025,0-0.051-0.001-0.075-0.001c-4.14-0.006-7.874,3.344-7.881,7.483v235.337    c-0.025,15.696,6.065,30.461,17.145,41.578c10.942,10.976,25.456,17.79,40.93,17.967c0.196,0.002,103.847,0,103.847,0    c4.14,0.006,7.5-3.871,7.508-8.01c0.008-4.114-3.302-6.932-7.406-6.979c-0.025,0-0.051,0-0.075,0H97.89    c0.801-0.716,1.59-2.082,2.357-2.846c11.115-11.081,17.252-25.827,17.276-41.522l0.371-233.625l243.256-0.131    c4.139-0.002,7.493-3.359,7.49-7.499C368.636,160.367,365.329,157.033,361.232,156.986z M89.662,436.634    c-8.28,8.255-19.279,12.79-30.97,12.771c-0.148,0-0.295,0-0.442-0.002c-8.76-0.101-17.104-2.764-24.183-7.622    c-0.126-0.147-0.252-0.295-0.391-0.434c-6.265-6.284-9.708-14.632-9.693-23.506c0.014-8.874,3.483-17.211,9.768-23.476    c4.744-4.729,11.045-7.328,17.744-7.317c6.732,0.039,12.992,2.629,17.721,7.374c7.226,7.249,7.208,19.026-0.041,26.252    c-5.215,5.197-13.687,5.184-18.883-0.03c-2.102-2.108-3.053-5.124-2.543-8.067c0.706-4.079-2.027-7.957-6.106-8.665    c-4.083-0.711-7.957,2.027-8.665,6.106c-1.339,7.729,1.164,15.659,6.697,21.209c11.033,11.067,29.011,11.095,40.081,0.063    c13.103-13.062,13.137-34.347,0.075-47.451c-7.556-7.58-17.646-11.76-28.314-11.781c-10.701-0.018-20.771,4.134-28.35,11.691    c-1.955,1.949-3.709,4.042-5.279,6.245c6.319-16.454,22.292-28.158,40.94-28.129c0.148,0,0.295,0,0.442,0.002    c11.526,0.132,22.338,4.692,30.488,12.867c8.254,8.28,12.789,19.279,12.77,30.97C102.513,417.396,97.943,428.38,89.662,436.634z" fill="#ff3399"/>
	</g>
</g>
<g>
	<g>
		<path d="M133.867,190.953c-0.028,0-0.057-0.001-0.085-0.001h-0.088c-4.14,0-7.453,3.355-7.454,7.493    c-0.001,4.111,3.352,7.45,7.452,7.497c0.028,0,0.056,0,0.085,0.001c4.14,0,7.497-3.354,7.498-7.493    C141.275,194.338,137.967,191,133.867,190.953z" fill="#ff3399"/>
	</g>
</g>
<g>
	<g>
		<path d="M178.383,191.015h-0.088c-4.14,0-7.453,3.355-7.454,7.493c-0.001,4.111,3.352,7.45,7.452,7.497    c0.028,0.001,0.056,0.001,0.085,0.001c4.14,0,7.497-3.354,7.498-7.493C185.876,194.373,182.549,191.049,178.383,191.015z" fill="#ff3399"/>
	</g>
</g>
<g>
	<g>
		<path d="M222.983,191.079h-0.088c-4.14,0-7.453,3.355-7.454,7.493c-0.001,4.111,3.352,7.45,7.452,7.497    c0.028,0.001,0.056,0.001,0.085,0.001c4.14,0,7.497-3.354,7.498-7.493C230.477,194.437,227.115,191.13,222.983,191.079z" fill="#ff3399"/>
	</g>
</g>
<g>
	<g>
		<path d="M267.669,191.144c-0.028,0-0.057-0.001-0.085-0.001h-0.088c-4.14,0-7.453,3.355-7.454,7.493    c-0.001,4.111,3.352,7.45,7.452,7.497c0.028,0,0.056,0.001,0.085,0.001c4.14,0,7.497-3.354,7.498-7.493    C275.078,194.529,271.769,191.191,267.669,191.144z" fill="#ff3399"/>
	</g>
</g>
<g>
	<g>
		<path d="M312.27,191.208c-0.028,0-0.057-0.001-0.085-0.001h-0.088c-4.14,0-7.453,3.355-7.454,7.493    c-0.001,4.111,3.352,7.45,7.452,7.497c0.028,0,0.057,0,0.085,0.001c4.14,0,7.497-3.354,7.498-7.493    C319.679,194.593,316.37,191.255,312.27,191.208z" fill="#ff3399"/>
	</g>
</g>
<g>
	<g>
		<path d="M356.869,191.272l-0.088-0.001c-4.139-0.047-7.489,3.27-7.536,7.409s3.314,7.533,7.453,7.581    c4.139,0.048,7.533-3.269,7.58-7.409C364.324,194.713,361.008,191.319,356.869,191.272z" fill="#ff3399"/>
	</g>
</g>
<g>
	<g>
		<path d="M401.47,191.336l-0.089-0.001c-4.139-0.047-7.488,3.27-7.535,7.41c-0.047,4.139,3.314,7.533,7.453,7.581    c4.139,0.048,7.533-3.27,7.58-7.409C408.925,194.777,405.609,191.383,401.47,191.336z" fill="#ff3399"/>
	</g>
</g>
<g>
	<g>
		<path d="M446.07,191.4l-0.088-0.001c-4.139-0.047-7.489,3.27-7.536,7.409c-0.047,4.139,3.314,7.533,7.453,7.581    c4.139,0.048,7.533-3.27,7.58-7.409C453.525,194.841,450.209,191.447,446.07,191.4z" fill="#ff3399"/>
	</g>
</g>
<g>
	<g>
		<path d="M133.68,255.03h-0.088c-4.14,0-7.453,3.355-7.454,7.493c-0.001,4.111,3.352,7.45,7.452,7.497    c0.028,0,0.057,0.001,0.085,0.001c4.14,0,7.497-3.354,7.498-7.493C141.173,258.388,137.823,255.039,133.68,255.03z" fill="#ff3399"/>
	</g>
</g>
<g>
	<g>
		<path d="M178.281,255.094h-0.088c-4.14,0-7.453,3.355-7.454,7.493c-0.001,4.111,3.352,7.45,7.452,7.497    c0.028,0,0.057,0.001,0.085,0.001c4.14,0,7.497-3.354,7.498-7.493C185.774,258.452,182.388,255.121,178.281,255.094z" fill="#ff3399"/>
	</g>
</g>
<g>
	<g>
		<path d="M222.964,255.159l-0.088-0.001c-4.139-0.047-7.489,3.27-7.536,7.409c-0.047,4.14,3.314,7.534,7.453,7.581    c4.139,0.047,7.533-3.27,7.58-7.409S227.103,255.206,222.964,255.159z" fill="#ff3399"/>
	</g>
</g>
<g>
	<g>
		<path d="M267.565,255.223l-0.089-0.001c-4.139-0.047-7.489,3.27-7.536,7.409c-0.047,4.14,3.315,7.534,7.454,7.581    c4.139,0.047,7.533-3.27,7.58-7.409C275.021,258.664,271.704,255.27,267.565,255.223z" fill="#ff3399"/>
	</g>
</g>
<g>
	<g>
		<path d="M312.165,255.287l-0.088-0.001c-4.139-0.047-7.489,3.27-7.536,7.409c-0.047,4.139,3.314,7.533,7.453,7.581    c4.139,0.047,7.533-3.27,7.58-7.409C319.621,258.728,316.304,255.334,312.165,255.287z" fill="#ff3399"/>
	</g>
</g>
<g>
	<g>
		<path d="M356.766,255.35l-0.088-0.001c-4.139-0.047-7.489,3.27-7.536,7.409c-0.047,4.139,3.314,7.534,7.453,7.581    c4.139,0.047,7.533-3.27,7.58-7.409C364.222,258.791,360.905,255.397,356.766,255.35z" fill="#ff3399"/>
	</g>
</g>
<g>
	<g>
		<path d="M401.37,255.414c-0.028,0-0.057-0.001-0.085-0.001h-0.088c-4.14,0-7.453,3.355-7.454,7.493    c-0.001,4.111,3.352,7.45,7.452,7.497c0.028,0,0.057,0.001,0.085,0.001c4.14,0,7.497-3.354,7.498-7.493    C408.779,258.8,405.47,255.461,401.37,255.414z" fill="#ff3399"/>
	</g>
</g>
<g>
	<g>
		<path d="M445.886,255.477h-0.088c-4.14,0-7.453,3.355-7.454,7.493c-0.001,4.111,3.352,7.45,7.452,7.497    c0.028,0,0.057,0.001,0.085,0.001c4.14,0,7.497-3.354,7.498-7.493C453.379,258.835,450.066,255.468,445.886,255.477z" fill="#ff3399"/>
	</g>
</g>
<g>
	<g>
		<path d="M133.662,319.11l-0.088-0.001c-4.139-0.047-7.489,3.27-7.536,7.409c-0.047,4.14,3.314,7.534,7.453,7.581    c4.139,0.047,7.533-3.27,7.58-7.409C141.117,322.551,137.801,319.157,133.662,319.11z" fill="#ff3399"/>
	</g>
</g>
<g>
	<g>
		<path d="M178.263,319.174l-0.089-0.001c-4.139-0.047-7.488,3.27-7.535,7.409c-0.047,4.139,3.314,7.533,7.453,7.581    c4.139,0.047,7.533-3.27,7.58-7.409C185.718,322.615,182.402,319.221,178.263,319.174z" fill="#ff3399"/>
	</g>
</g>
<g>
	<g>
		<path d="M222.862,319.237l-0.088-0.001c-4.139-0.047-7.489,3.27-7.536,7.409c-0.047,4.139,3.314,7.534,7.453,7.581    c4.139,0.047,7.533-3.27,7.58-7.409C230.318,322.678,227.001,319.284,222.862,319.237z" fill="#ff3399"/>
	</g>
</g>
<g>
	<g>
		<path d="M267.465,319.301c-0.028,0-0.057-0.001-0.085-0.001h-0.088c-4.14,0-7.453,3.355-7.454,7.493    c-0.001,4.111,3.352,7.45,7.452,7.497c0.028,0,0.057,0.001,0.085,0.001c4.14,0,7.497-3.354,7.498-7.493    C274.874,322.686,271.565,319.348,267.465,319.301z" fill="#ff3399"/>
	</g>
</g>
<g>
	<g>
		<path d="M312.066,319.365c-0.028,0-0.057-0.001-0.085-0.001h-0.088c-4.14,0-7.453,3.355-7.454,7.493    c-0.001,4.111,3.352,7.45,7.452,7.497c0.028,0,0.057,0.001,0.085,0.001c4.14,0,7.497-3.354,7.498-7.493    C319.475,322.75,316.166,319.412,312.066,319.365z" fill="#ff3399"/>
	</g>
</g>
<g>
	<g>
		<path d="M356.667,319.428c-0.028,0-0.057-0.001-0.085-0.001h-0.088c-4.14,0-7.453,3.355-7.454,7.493    c-0.001,4.111,3.352,7.451,7.452,7.497c0.028,0,0.057,0.001,0.085,0.001c4.14,0,7.497-3.354,7.498-7.493    C364.076,322.812,360.767,319.475,356.667,319.428z" fill="#ff3399"/>
	</g>
</g>
<g>
	<g>
		<path d="M401.268,319.492c-0.028,0-0.057-0.001-0.085-0.001h-0.088c-4.14,0-7.453,3.355-7.454,7.493    c-0.001,4.111,3.352,7.45,7.452,7.497c0.028,0,0.057,0.001,0.085,0.001c4.14,0,7.497-3.354,7.498-7.493    C408.677,322.877,405.368,319.539,401.268,319.492z" fill="#ff3399"/>
	</g>
</g>
<g>
	<g>
		<path d="M445.869,319.556c-0.028,0-0.057-0.001-0.084-0.001h-0.089c-4.14-0.001-7.453,3.354-7.454,7.492    c-0.002,4.111,3.352,7.451,7.452,7.498c0.028,0,0.057,0.001,0.084,0.001c4.14,0.001,7.497-3.353,7.499-7.492    C453.277,322.941,449.969,319.603,445.869,319.556z" fill="#ff3399"/>
	</g>
</g>
<g>
	<g>
		<path d="M133.477,383.187h-0.088c-4.14,0-7.453,3.355-7.454,7.493c-0.001,4.111,3.351,7.45,7.452,7.497    c0.028,0,0.057,0.001,0.085,0.001c4.14,0,7.497-3.354,7.498-7.493C140.971,386.545,137.643,383.183,133.477,383.187z" fill="#ff3399"/>
	</g>
</g>
<g>
	<g>
		<path d="M178.078,383.251h-0.088c-4.14,0-7.453,3.355-7.454,7.493c-0.001,4.111,3.352,7.45,7.452,7.497    c0.028,0,0.057,0.001,0.085,0.001c4.14,0,7.497-3.354,7.498-7.493C185.571,386.608,182.208,383.264,178.078,383.251z" fill="#ff3399"/>
	</g>
</g>
<g>
	<g>
		<path d="M222.764,383.316c-0.028,0-0.057-0.001-0.085-0.001h-0.088c-4.14,0-7.453,3.355-7.454,7.493    c-0.001,4.111,3.351,7.45,7.452,7.497c0.028,0,0.057,0.001,0.085,0.001c4.14,0,7.497-3.354,7.498-7.493    C230.172,386.7,226.864,383.363,222.764,383.316z" fill="#ff3399"/>
	</g>
</g>
<g>
	<g>
		<path d="M267.364,383.379c-0.028,0-0.057-0.001-0.085-0.001h-0.088c-4.14,0-7.453,3.355-7.454,7.493    c-0.001,4.111,3.351,7.45,7.452,7.497c0.028,0,0.057,0.001,0.085,0.001c4.14,0,7.497-3.354,7.498-7.493    C274.773,386.763,271.464,383.426,267.364,383.379z" fill="#ff3399"/>
	</g>
</g>
<g>
	<g>
		<path d="M311.965,383.443c-0.028,0-0.057-0.001-0.085-0.001h-0.088c-4.14,0-7.453,3.355-7.454,7.493    c-0.001,4.111,3.351,7.45,7.452,7.497c0.028,0,0.057,0.001,0.085,0.001c4.14,0,7.497-3.354,7.498-7.493    C319.374,386.827,316.065,383.49,311.965,383.443z" fill="#ff3399"/>
	</g>
</g>
<g>
	<g>
		<path d="M356.566,383.507c-0.028,0-0.057-0.001-0.084-0.001h-0.089c-4.14-0.001-7.453,3.354-7.454,7.492    c-0.002,4.111,3.351,7.451,7.452,7.498c0.028,0,0.057,0.001,0.084,0.001c4.14,0.001,7.497-3.353,7.499-7.492    C363.975,386.892,360.666,383.554,356.566,383.507z" fill="#ff3399"/>
	</g>
</g>
<g>
	<g>
		<path d="M401.166,383.57c-0.029,0-0.057,0-0.085-0.001h-0.088c-4.14,0-7.453,3.355-7.454,7.493    c-0.001,4.111,3.352,7.45,7.452,7.497c0.028,0,0.057,0.001,0.085,0.001c4.14,0,7.497-3.354,7.498-7.493    C408.575,386.954,405.266,383.617,401.166,383.57z" fill="#ff3399"/>
	</g>
</g>
<g>
	<g>
		<path d="M445.765,383.635l-0.088-0.001c-4.139-0.047-7.489,3.27-7.536,7.409c-0.047,4.139,3.314,7.533,7.453,7.581    c4.139,0.047,7.533-3.27,7.58-7.409C453.22,387.075,449.904,383.682,445.765,383.635z" fill="#ff3399"/>
	</g>
</g>
<g>
	<g>
		<path d="M156.474,223.047l-0.088-0.001c-4.139-0.047-7.489,3.27-7.536,7.409c-0.047,4.139,3.314,7.533,7.453,7.581    s7.533-3.269,7.58-7.409C163.93,226.488,160.613,223.094,156.474,223.047z" fill="#ff3399"/>
	</g>
</g>
<g>
	<g>
		<path d="M201.077,223.111c-0.028,0-0.057-0.001-0.085-0.001h-0.088c-4.14,0-7.453,3.355-7.454,7.493    c-0.001,4.111,3.352,7.45,7.452,7.497c0.029,0,0.057,0.001,0.085,0.001c4.14,0,7.497-3.354,7.498-7.493    C208.486,226.496,205.177,223.158,201.077,223.111z" fill="#ff3399"/>
	</g>
</g>
<g>
	<g>
		<path d="M245.678,223.175c-0.028,0-0.057-0.001-0.085-0.001h-0.088c-4.14,0-7.453,3.355-7.454,7.493    c-0.001,4.111,3.352,7.45,7.452,7.497c0.029,0,0.057,0,0.085,0.001c4.14,0,7.497-3.354,7.498-7.493    C253.087,226.56,249.778,223.222,245.678,223.175z" fill="#ff3399"/>
	</g>
</g>
<g>
	<g>
		<path d="M290.279,223.238c-0.028,0-0.057-0.001-0.084-0.001h-0.089c-4.14-0.001-7.453,3.354-7.454,7.492    c-0.002,4.111,3.351,7.451,7.452,7.498c0.029,0.001,0.057,0.001,0.084,0.001c4.14,0.001,7.497-3.353,7.499-7.492    C297.688,226.624,294.379,223.285,290.279,223.238z" fill="#ff3399"/>
	</g>
</g>
<g>
	<g>
		<path d="M334.794,223.301h-0.088c-4.14,0-7.453,3.355-7.454,7.493c-0.001,4.111,3.352,7.45,7.452,7.497    c0.029,0,0.057,0.001,0.085,0.001c4.14,0,7.497-3.354,7.498-7.493C342.287,226.659,338.946,223.303,334.794,223.301z" fill="#ff3399"/>
	</g>
</g>
<g>
	<g>
		<path d="M379.395,223.365h-0.088c-4.14,0-7.453,3.355-7.454,7.493c-0.001,4.111,3.352,7.45,7.452,7.497    c0.028,0,0.057,0.001,0.085,0.001c4.14,0,7.497-3.354,7.498-7.493C386.888,226.723,383.511,223.385,379.395,223.365z" fill="#ff3399"/>
	</g>
</g>
<g>
	<g>
		<path d="M424.08,223.43c-0.028,0-0.057-0.001-0.085-0.001h-0.088c-4.14,0-7.453,3.355-7.454,7.493    c-0.001,4.111,3.352,7.45,7.452,7.497c0.028,0,0.057,0.001,0.085,0.001c4.14,0,7.497-3.354,7.498-7.493    C431.489,226.815,428.181,223.476,424.08,223.43z" fill="#ff3399"/>
	</g>
</g>
<g>
	<g>
		<path d="M468.681,223.493c-0.028,0-0.057-0.001-0.085-0.001h-0.088c-4.14,0-7.453,3.355-7.454,7.493    c-0.001,4.111,3.352,7.45,7.452,7.497c0.028,0,0.057,0.001,0.085,0.001c4.14,0,7.497-3.354,7.498-7.493    C476.09,226.879,472.782,223.54,468.681,223.493z" fill="#ff3399"/>
	</g>
</g>
<g>
	<g>
		<path d="M156.375,287.125c-0.028,0-0.057-0.001-0.085-0.001h-0.088c-4.14,0-7.453,3.355-7.454,7.493    c-0.001,4.111,3.351,7.451,7.452,7.497c0.028,0,0.057,0.001,0.085,0.001c4.14,0,7.497-3.354,7.498-7.493    C163.784,290.51,160.475,287.172,156.375,287.125z" fill="#ff3399"/>
	</g>
</g>
<g>
	<g>
		<path d="M200.975,287.189c-0.028,0-0.057-0.001-0.085-0.001h-0.088c-4.14,0-7.453,3.355-7.454,7.493    c-0.001,4.111,3.352,7.45,7.452,7.497c0.028,0,0.057,0.001,0.085,0.001c4.14,0,7.497-3.354,7.498-7.493    C208.384,290.574,205.075,287.236,200.975,287.189z" fill="#ff3399"/>
	</g>
</g>
<g>
	<g>
		<path d="M245.576,287.253c-0.028,0-0.057-0.001-0.085-0.001h-0.088c-4.14,0-7.453,3.355-7.454,7.493    c-0.001,4.111,3.352,7.45,7.452,7.497c0.028,0,0.057,0.001,0.085,0.001c4.14,0,7.497-3.354,7.498-7.493    C252.985,290.638,249.676,287.3,245.576,287.253z" fill="#ff3399"/>
	</g>
</g>
<g>
	<g>
		<path d="M290.177,287.317c-0.028,0-0.057-0.001-0.085-0.001h-0.088c-4.14,0-7.453,3.355-7.454,7.493    c-0.001,4.111,3.352,7.45,7.452,7.497c0.028,0,0.057,0.001,0.085,0.001c4.14,0,7.497-3.354,7.498-7.493    C297.586,290.702,294.277,287.364,290.177,287.317z" fill="#ff3399"/>
	</g>
</g>
<g>
	<g>
		<path d="M334.693,287.379h-0.088c-4.14,0-7.453,3.355-7.454,7.493c-0.001,4.111,3.352,7.45,7.452,7.497    c0.028,0,0.057,0.001,0.085,0.001c4.14,0,7.497-3.354,7.498-7.493C342.186,290.737,338.785,287.374,334.693,287.379z" fill="#ff3399"/>
	</g>
</g>
<g>
	<g>
		<path d="M379.377,287.445l-0.088-0.001c-4.139-0.047-7.489,3.27-7.536,7.409c-0.047,4.139,3.314,7.533,7.453,7.581    c4.139,0.047,7.533-3.27,7.58-7.409C386.832,290.885,383.516,287.492,379.377,287.445z" fill="#ff3399"/>
	</g>
</g>
<g>
	<g>
		<path d="M423.978,287.509l-0.088-0.001c-4.139-0.047-7.489,3.27-7.536,7.409c-0.047,4.139,3.314,7.533,7.453,7.581    c4.139,0.048,7.533-3.27,7.58-7.409C431.433,290.948,428.117,287.556,423.978,287.509z" fill="#ff3399"/>
	</g>
</g>
<g>
	<g>
		<path d="M468.578,287.572l-0.089-0.001c-4.139-0.047-7.489,3.27-7.536,7.409c-0.047,4.139,3.315,7.533,7.454,7.581    s7.533-3.27,7.58-7.409C476.034,291.012,472.717,287.62,468.578,287.572z" fill="#ff3399"/>
	</g>
</g>
<g>
	<g>
		<path d="M156.272,351.204c-0.028,0-0.057-0.001-0.085-0.001H156.1c-4.14,0-7.453,3.355-7.454,7.493    c-0.001,4.111,3.352,7.45,7.452,7.497c0.028,0,0.057,0.001,0.085,0.001c4.14,0,7.497-3.354,7.498-7.493    C163.681,354.589,160.372,351.251,156.272,351.204z" fill="#ff3399"/>
	</g>
</g>
<g>
	<g>
		<path d="M200.871,351.268l-0.088-0.001c-4.139-0.047-7.489,3.27-7.536,7.409c-0.047,4.14,3.314,7.534,7.453,7.581    c4.139,0.047,7.533-3.27,7.58-7.409C208.327,354.708,205.01,351.315,200.871,351.268z" fill="#ff3399"/>
	</g>
</g>
<g>
	<g>
		<path d="M245.472,351.332l-0.088-0.001c-4.139-0.047-7.489,3.27-7.536,7.409c-0.047,4.14,3.314,7.534,7.453,7.581    c4.139,0.047,7.533-3.27,7.58-7.409C252.928,354.772,249.611,351.379,245.472,351.332z" fill="#ff3399"/>
	</g>
</g>
<g>
	<g>
		<path d="M290.073,351.396l-0.088-0.001c-4.139-0.047-7.489,3.27-7.536,7.409c-0.047,4.139,3.314,7.533,7.453,7.581    c4.139,0.047,7.533-3.27,7.58-7.409C297.529,354.836,294.212,351.443,290.073,351.396z" fill="#ff3399"/>
	</g>
</g>
<g>
	<g>
		<path d="M334.674,351.459l-0.088-0.001c-4.139-0.047-7.489,3.27-7.536,7.409c-0.047,4.139,3.314,7.534,7.453,7.581    s7.533-3.27,7.58-7.409C342.13,354.899,338.813,351.506,334.674,351.459z" fill="#ff3399"/>
	</g>
</g>
<g>
	<g>
		<path d="M379.275,351.523l-0.088-0.001c-4.139-0.047-7.489,3.27-7.536,7.409c-0.047,4.139,3.314,7.533,7.453,7.581    c4.139,0.047,7.533-3.27,7.58-7.409C386.73,354.963,383.414,351.57,379.275,351.523z" fill="#ff3399"/>
	</g>
</g>
<g>
	<g>
		<path d="M423.793,351.586h-0.088c-4.14,0-7.453,3.355-7.454,7.493c-0.001,4.111,3.352,7.45,7.452,7.497    c0.028,0,0.057,0.001,0.085,0.001c4.14,0,7.497-3.354,7.498-7.493C431.286,354.943,427.897,351.609,423.793,351.586z" fill="#ff3399"/>
	</g>
</g>
<g>
	<g>
		<path d="M468.478,351.65c-0.028,0-0.057-0.001-0.085-0.001h-0.088c-4.14,0-7.453,3.355-7.454,7.493    c-0.001,4.111,3.352,7.45,7.452,7.497c0.028,0,0.057,0.001,0.085,0.001c4.14,0,7.497-3.354,7.498-7.493    C475.887,355.035,472.578,351.697,468.478,351.65z" fill="#ff3399"/>
	</g>
</g>
<g>
	<g>
		<path d="M156.169,415.283l-0.088-0.001c-4.139-0.047-7.489,3.27-7.536,7.409c-0.047,4.139,3.314,7.533,7.453,7.581    c4.139,0.047,7.533-3.27,7.58-7.409C163.625,418.723,160.309,415.33,156.169,415.283z" fill="#ff3399"/>
	</g>
</g>
<g>
	<g>
		<path d="M200.77,415.346l-0.088-0.001c-4.139-0.047-7.489,3.27-7.536,7.409c-0.047,4.139,3.314,7.534,7.453,7.581    c4.139,0.047,7.533-3.27,7.58-7.409C208.226,418.786,204.909,415.393,200.77,415.346z" fill="#ff3399"/>
	</g>
</g>
<g>
	<g>
		<path d="M245.373,415.41c-0.028,0-0.057-0.001-0.084-0.001H245.2c-4.14-0.001-7.453,3.354-7.454,7.492    c-0.002,4.111,3.352,7.451,7.452,7.498c0.028,0,0.057,0.001,0.084,0.001c4.14,0.001,7.497-3.353,7.499-7.492    C252.782,418.795,249.473,415.457,245.373,415.41z" fill="#ff3399"/>
	</g>
</g>
<g>
	<g>
		<path d="M289.973,415.474c-0.028,0-0.057-0.001-0.085-0.001H289.8c-4.14,0-7.453,3.355-7.454,7.493    c-0.001,4.111,3.352,7.45,7.452,7.497c0.028,0,0.057,0.001,0.085,0.001c4.14,0,7.497-3.354,7.498-7.493    C297.382,418.858,294.073,415.521,289.973,415.474z" fill="#ff3399"/>
	</g>
</g>
<g>
	<g>
		<path d="M334.574,415.537c-0.028,0-0.057-0.001-0.085-0.001h-0.088c-4.14,0-7.453,3.355-7.454,7.493    c-0.001,4.111,3.352,7.451,7.452,7.497c0.028,0,0.057,0.001,0.085,0.001c4.14,0,7.497-3.354,7.498-7.493    C341.983,418.921,338.674,415.584,334.574,415.537z" fill="#ff3399"/>
	</g>
</g>
<g>
	<g>
		<path d="M379.175,415.601c-0.028,0-0.057,0-0.085-0.001h-0.088c-4.14,0-7.453,3.355-7.454,7.493    c-0.001,4.111,3.352,7.45,7.452,7.497c0.028,0,0.057,0.001,0.085,0.001c4.14,0,7.497-3.354,7.498-7.493    C386.583,418.985,383.275,415.648,379.175,415.601z" fill="#ff3399"/>
	</g>
</g>
<g>
	<g>
		<path d="M423.691,415.664h-0.088c-4.14,0-7.453,3.355-7.454,7.493c-0.001,4.111,3.352,7.45,7.452,7.497    c0.028,0,0.057,0.001,0.085,0.001c4.14,0,7.497-3.354,7.498-7.493C431.184,419.021,427.878,415.683,423.691,415.664z" fill="#ff3399"/>
	</g>
</g>
<g>
	<g>
		<path d="M468.292,415.728h-0.088v0c-4.14,0-7.453,3.355-7.454,7.493c-0.001,4.111,3.352,7.45,7.452,7.497    c0.028,0,0.057,0.001,0.085,0.001c4.14,0,7.497-3.354,7.498-7.493C475.785,419.085,472.443,415.763,468.292,415.728z" fill="#ff3399"/>
	</g>
</g>
<g>
</g>
<g>
</g>
<g>
</g>
<g>
</g>
<g>
</g>
<g>
</g>
<g>
</g>
<g>
</g>
<g>
</g>
<g>
</g>
<g>
</g>
<g>
</g>
<g>
</g>
<g>
</g>
<g>
</g>
</svg>
