<?xml version="1.0" encoding="iso-8859-1"?>
<!-- Generator: Adobe Illustrator 19.0.0, SVG Export Plug-In . SVG Version: 6.00 Build 0)  -->
<svg xmlns="http://www.w3.org/2000/svg" xmlns:xlink="http://www.w3.org/1999/xlink" version="1.1" id="Capa_1" x="0px" y="0px" viewBox="0 0 511.997 511.997" style="enable-background:new 0 0 511.997 511.997;" xml:space="preserve" width="512px" height="512px">
<g>
	<g>
		<path d="M257.254,202.594c-1.568-3.767-5.892-5.548-9.658-3.98c-19.468,8.104-37.193,0.264-37.516,0.119    c-3.686-1.711-8.068-0.121-9.797,3.562c-1.732,3.694-0.143,8.092,3.55,9.825c0.633,0.297,10.82,4.963,25.115,4.963    c7.283,0,15.634-1.212,24.326-4.831C257.039,210.684,258.821,206.359,257.254,202.594z" fill="#ff3399"/>
	</g>
</g>
<g>
	<g>
		<path d="M209.843,114.482h-0.089c-4.08,0-7.341,3.307-7.341,7.386c0,4.079,3.351,7.386,7.431,7.386s7.386-3.307,7.386-7.386    C217.23,117.789,213.923,114.482,209.843,114.482z" fill="#ff3399"/>
	</g>
</g>
<g>
	<g>
		<path d="M245.054,114.482h-0.089c-4.08,0-7.341,3.307-7.341,7.386c0,4.079,3.35,7.386,7.43,7.386s7.386-3.307,7.386-7.386    C252.44,117.789,249.133,114.482,245.054,114.482z" fill="#ff3399"/>
	</g>
</g>
<g>
	<g>
		<path d="M491.131,462.693c-0.784-6.93-4.683-13.167-10.793-16.898l-98.826-60.347c-3.479-2.125-8.026-1.028-10.153,2.454    c-2.126,3.482-1.026,8.027,2.455,10.153l98.825,60.347c0.885,0.54,1.627,1.238,2.228,2.032h-23.105    c-2.016,0-3.986,0.2-5.896,0.569L274.712,356.49c-14.229-8.689-30.563-13.282-47.236-13.282h-5.287    c0.003-0.087,0.013-0.173,0.013-0.261V303.37h44.834c2.292,19.769,13.662,37.827,30.817,48.302l46.405,28.337    c3.482,2.126,8.027,1.028,10.154-2.454c2.125-3.482,1.026-8.027-2.454-10.153l-46.406-28.337    c-14.908-9.104-24.169-25.611-24.169-43.081c0-0.007-0.001-0.013-0.001-0.019V195.761h155.064    c12.326,0,22.353-10.028,22.353-22.353c0-12.326-10.027-22.354-22.353-22.354H265.981c8.326-9.221,13.404-21.427,13.404-34.8    c0-2.934-0.246-5.853-0.731-8.725c1.489-0.945,2.839-2.128,3.983-3.537c3.16-3.893,4.381-8.945,3.349-13.862    c-2.781-13.254-9.101-24.585-17.623-32.804c4.01-5.68,6.228-12.529,6.228-19.567c0-18.683-15.2-33.883-33.883-33.883    c-18.682,0-33.882,15.2-33.882,33.883c0,2.443,0.263,4.838,0.767,7.175c-18.857,5.396-34.004,22.479-38.77,45.195    c-1.032,4.917,0.189,9.969,3.349,13.862c1.15,1.416,2.507,2.606,4.006,3.553c-0.485,2.869-0.755,5.78-0.755,8.709    c0,13.372,5.078,25.579,13.404,34.8H22.353C10.027,151.055,0,161.083,0,173.408c0,12.326,10.027,22.354,22.353,22.354h86.365    c4.08,0,7.386-3.307,7.386-7.386c0-4.079-3.307-7.386-7.386-7.386H22.353c-4.18,0-7.581-3.401-7.581-7.581    s3.401-7.581,7.581-7.581h155.064v15.162h-35.038c-4.08,0-7.386,3.307-7.386,7.386c0,4.079,3.307,7.386,7.386,7.386h35.038    v100.221c0,0.01,0.001,0.019,0.001,0.029c-0.016,8.963-7.311,16.25-16.277,16.25h-34.608c-28.647,0-51.954,23.306-51.954,51.953    v96.22h-5.435c-18.09,0-32.807,14.717-32.807,32.808v1.323c0,7.474,6.08,13.555,13.554,13.555h61.037    c9.19,0,16.666-7.476,16.666-16.666V473.99c0-5.217-2.967-9.747-7.297-12.012v-27.461c0-4.079-3.307-7.386-7.386-7.386    c-4.079,0-7.386,3.307-7.386,7.386v25.918H89.351v-96.22c0-20.502,16.679-37.181,37.181-37.181h34.608    c14.578,0,26.841-10.098,30.164-23.665h16.124v39.577c0,0.088,0.01,0.174,0.013,0.261h-80.91    c-11.585,0-21.009,9.424-21.009,21.008v36.643c0,4.079,3.307,7.386,7.386,7.386c4.079,0,7.386-3.307,7.386-7.386v-36.643    c0-3.438,2.798-6.235,6.236-6.235h100.943c13.955,0,27.627,3.844,39.537,11.117l163.468,99.821    c-5.989,5.659-9.738,13.666-9.738,22.537c0,9.19,7.476,16.666,16.666,16.666h61.037c7.474,0,13.554-6.081,13.554-13.555v-1.323    C512,479.365,503.333,467.479,491.131,462.693z M281.381,165.828h155.064c4.18-0.001,7.581,3.4,7.581,7.581    c0,4.18-3.401,7.581-7.581,7.581H281.381V165.828z M112.82,475.208v16.247h0.001c0,1.044-0.849,1.893-1.893,1.893H51.109v-0.105    c0-9.945,8.09-18.035,18.034-18.035H112.82z M240.707,18.65c10.537,0,19.11,8.573,19.11,19.11c0,3.968-1.19,7.714-3.396,10.878    c-3.431-1.808-7.048-3.208-10.804-4.141l1.712-3.467c1.806-3.658,0.306-8.087-3.352-9.894c-3.66-1.805-8.088-0.305-9.894,3.352    l-4.266,8.638h-7.46c-0.505-1.727-0.761-3.522-0.761-5.367C221.598,27.223,230.17,18.65,240.707,18.65z M184.976,95.315    c-0.676,0-1.098-0.345-1.333-0.634c-0.204-0.249-0.52-0.776-0.364-1.517c4.357-20.763,19.62-35.265,37.12-35.265h13.979    c0.009,0,0.017,0.001,0.026,0.001c0.006,0,0.011-0.001,0.017-0.001c17.494,0.006,32.753,14.506,37.109,35.265    c0.156,0.741-0.16,1.268-0.361,1.516c-0.235,0.289-0.657,0.634-1.333,0.634h-38.22v-4.937c0-4.079-3.307-7.386-7.386-7.386    c-4.079,0-7.386,3.307-7.386,7.386v4.937h-4.403V82.708c0-4.079-3.307-7.386-7.386-7.386s-7.386,3.307-7.386,7.386v12.607H184.976    z M190.194,116.255c0-2.076,0.189-4.136,0.527-6.166h73.362c0.338,2.03,0.529,4.09,0.529,6.166    c0,20.517-16.692,37.209-37.209,37.209C206.886,153.464,190.194,136.771,190.194,116.255z M192.19,288.596v-122.77h19.49    c0.023,0,0.046-0.003,0.069-0.003c4.943,1.564,10.2,2.413,15.654,2.413c5.45,0,10.704-0.847,15.643-2.41h23.561v122.77H192.19z     M497.227,493.349h-59.818c-1.044,0-1.893-0.849-1.893-1.893c0-8.959,7.288-16.247,16.246-16.247h27.43    c9.945,0,18.035,8.09,18.035,18.035V493.349z" fill="#ff3399"/>
	</g>
</g>
<g>
</g>
<g>
</g>
<g>
</g>
<g>
</g>
<g>
</g>
<g>
</g>
<g>
</g>
<g>
</g>
<g>
</g>
<g>
</g>
<g>
</g>
<g>
</g>
<g>
</g>
<g>
</g>
<g>
</g>
</svg>
