<?xml version="1.0"?>
<svg xmlns="http://www.w3.org/2000/svg" height="512px" viewBox="0 -32 480.00074 480" width="512px"><path d="m96 144c7.097656-.144531 14.019531 2.210938 19.550781 6.65625 16.90625 12.457031 39.953125 12.457031 56.859375 0 11.515625-8.886719 27.578125-8.886719 39.09375 0 16.90625 12.457031 39.953125 12.457031 56.855469 0 11.542969-8.875 27.613281-8.875 39.152344 0 16.925781 12.457031 39.980469 12.457031 56.90625 0 5.542969-4.449219 12.476562-6.808594 19.582031-6.65625 4.417969 0 8-3.582031 8-8s-3.582031-8-8-8c-10.261719-.148438-20.277344 3.140625-28.457031 9.34375-11.550781 8.894531-27.644531 8.894531-39.199219 0-16.917969-12.445312-39.96875-12.445312-56.886719 0-11.523437 8.875-27.582031 8.875-39.105469 0-16.902343-12.457031-39.949218-12.457031-56.855468 0-11.523438 8.875-27.578125 8.875-39.105469 0-8.15625-6.195312-18.148437-9.484375-28.390625-9.34375-4.417969 0-8 3.582031-8 8s3.582031 8 8 8zm0 0" fill="#ff3399"/><path d="m72 224c6.011719-.058594 11.808594 2.238281 16.144531 6.398438 14.832031 12.855468 36.855469 12.855468 51.6875 0 9.089844-8.480469 23.191407-8.480469 32.28125 0 14.832031 12.855468 36.855469 12.855468 51.6875 0 9.089844-8.480469 23.191407-8.480469 32.28125 0 14.832031 12.855468 36.855469 12.855468 51.6875 0 9.109375-8.484376 23.226563-8.484376 32.335938 0 14.847656 12.84375 36.871093 12.84375 51.71875 0 4.347656-4.164063 10.15625-6.460938 16.175781-6.398438 4.417969 0 8-3.582031 8-8s-3.582031-8-8-8c-9.511719-.097656-18.722656 3.320312-25.863281 9.601562-9.113281 8.484376-23.234375 8.484376-32.34375 0-14.84375-12.855468-36.875-12.855468-51.71875 0-9.09375 8.476563-23.195313 8.476563-32.289063 0-14.832031-12.851562-36.851562-12.851562-51.679687 0-9.097657 8.480469-23.203125 8.480469-32.296875 0-14.828125-12.851562-36.851563-12.851562-51.679688 0-9.09375 8.476563-23.195312 8.476563-32.289062 0-7.128906-6.285156-16.335938-9.707031-25.839844-9.601562-4.417969 0-8 3.582031-8 8s3.582031 8 8 8zm0 0" fill="#ff3399"/><path d="m128 64c8.523438-.210938 16.90625 2.214844 24 6.945312 9.507812 6.132813 20.632812 9.289063 31.945312 9.054688 11.332032.246094 22.476563-2.910156 32-9.054688 14.6875-9.257812 33.382813-9.257812 48.070313 0 19.621094 12.085938 44.378906 12.085938 64 0 7.097656-4.71875 15.46875-7.140624 23.984375-6.945312 4.417969 0 8-3.582031 8-8s-3.582031-8-8-8c-11.332031-.242188-22.476562 2.914062-32 9.054688-14.695312 9.261718-33.402344 9.261718-48.09375 0-19.605469-12.074219-44.339844-12.074219-63.945312 0-7.097657 4.726562-15.476563 7.148437-24 6.945312-8.523438.210938-16.90625-2.214844-24-6.945312-9.511719-6.136719-20.640626-9.289063-31.960938-9.054688-4.417969 0-8 3.582031-8 8s3.582031 8 8 8zm0 0" fill="#ff3399"/><path d="m8 352h56v56c0 4.417969 3.582031 8 8 8h32c4.417969 0 8-3.582031 8-8v-56h80v56c0 4.417969 3.582031 8 8 8h32c4.417969 0 8-3.582031 8-8v-56h232c2.445312 0 4.757812-1.121094 6.277344-3.039062 1.515625-1.917969 2.070312-4.429688 1.507812-6.808594l-80-336c-.855468-3.605469-4.078125-6.152344-7.785156-6.152344h-304c-3.707031 0-6.925781 2.546875-7.785156 6.152344l-80 336c-.5625 2.378906-.007813 4.890625 1.507812 6.808594 1.519532 1.917968 3.832032 3.039062 6.277344 3.039062zm120-16h-16v-32h16zm16 0v-32c0-8.835938-7.164062-16-16-16h-16c-8.835938 0-16 7.164062-16 16v96h-16v-104c0-13.253906 10.746094-24 24-24h32c13.253906 0 24 10.746094 24 24v40zm112 0h-16v-32h16zm16 0v-32c0-8.835938-7.164062-16-16-16h-16c-8.835938 0-16 7.164062-16 16v96h-16v-104c0-13.253906 10.746094-24 24-24h32c13.253906 0 24 10.746094 24 24v40zm-177.679688-320h291.359376l76.191406 320h-157.871094v-40c-.027344-22.078125-17.917969-39.972656-40-40h-32c-22.078125.027344-39.972656 17.921875-40 40v40h-16v-40c-.027344-22.078125-17.917969-39.972656-40-40h-32c-22.078125.027344-39.972656 17.921875-40 40v40h-45.871094zm0 0" fill="#ff3399"/></svg>
