<?xml version="1.0"?>
<svg xmlns="http://www.w3.org/2000/svg" height="512px" viewBox="-85 0 512 512.1122" width="512px"><path d="m217.65625 209.402344c.1875-.105469.28125-.285156.460938-.402344 13.710937-8.085938 25.160156-19.503906 33.28125-33.195312.207031-.242188.398437-.496094.578124-.757813.085938-.144531.085938-.316406.164063-.460937 16.550781-28.773438 16.550781-64.175782 0-92.945313-.078125-.144531-.078125-.316406-.164063-.460937-.085937-.144532-.28125-.28125-.402343-.460938-8.136719-13.828125-19.664063-25.355469-33.492188-33.492188-.179687-.121093-.273437-.300781-.460937-.402343-.1875-.101563-.316406-.085938-.460938-.164063-28.769531-16.550781-64.175781-16.550781-92.945312 0-.144532.078125-.316406.078125-.460938.164063-.144531.085937-.28125.28125-.460937.402343-13.824219 8.136719-25.351563 19.664063-33.492188 33.492188-.121093.171875-.296875.273438-.402343.460938-.101563.1875-.085938.316406-.160157.460937-16.554687 28.769531-16.554687 64.171875 0 92.945313.074219.144531.074219.316406.160157.460937.179687.261719.375.515625.582031.757813 8.117187 13.691406 19.566406 25.109374 33.28125 33.195312.175781.117188.269531.296875.460937.402344.207032.097656.421875.1875.636719.261718 28.679687 16.417969 63.910156 16.417969 92.589844 0 .238281-.070312.476562-.160156.707031-.261718zm-108.664062-35.800782 6.878906-3.964843c2.660156-1.515625 4.308594-4.339844 4.316406-7.402344.003906-3.0625-1.628906-5.890625-4.285156-7.417969-2.65625-1.523437-5.921875-1.507812-8.566406.039063l-6.945313 4.003906c-3.097656-7.054687-5.113281-14.535156-5.972656-22.1875h8.039062c4.710938 0 8.53125-3.820313 8.53125-8.535156 0-4.710938-3.820312-8.53125-8.53125-8.53125h-8.03125c.859375-7.65625 2.875-15.136719 5.972657-22.1875l6.945312 4c2.644531 1.550781 5.914062 1.566406 8.566406.039062 2.65625-1.523437 4.289063-4.355469 4.285156-7.417969-.007812-3.0625-1.65625-5.886718-4.316406-7.398437l-6.878906-3.96875c4.566406-6.183594 10.03125-11.648437 16.214844-16.214844l3.96875 6.878907c1.511718 2.664062 4.335937 4.308593 7.398437 4.316406 3.0625.007812 5.894531-1.628906 7.417969-4.28125 1.523438-2.65625 1.511719-5.925782-.039062-8.566406l-3.957032-7.023438c7.050782-3.101562 14.53125-5.113281 22.183594-5.972656v8.035156c0 4.714844 3.820312 8.535156 8.535156 8.535156 4.710938 0 8.53125-3.820312 8.53125-8.535156v-8.027344c7.65625.859375 15.136719 2.875 22.1875 5.972656l-4 6.945313c-1.550781 2.640625-1.5625 5.910156-.039062 8.566406 1.523437 2.65625 4.355468 4.289063 7.417968 4.285157 3.0625-.007813 5.886719-1.65625 7.398438-4.316407l3.96875-6.878906c6.183594 4.566406 11.648438 10.03125 16.214844 16.214844l-6.878906 3.964843c-2.660157 1.515626-4.308594 4.339844-4.316407 7.402344-.007812 3.0625 1.628907 5.890625 4.285157 7.417969 2.652343 1.523437 5.921874 1.507813 8.566406-.039063l6.945312-4.003906c3.097656 7.054688 5.113282 14.535156 5.972656 22.1875h-7.988281c-4.710937 0-8.53125 3.820313-8.53125 8.535156 0 4.710938 3.820313 8.53125 8.53125 8.53125h8.03125c-.859375 7.65625-2.875 15.136719-5.972656 22.1875l-6.949219-4c-4.074218-2.320312-9.261718-.914062-11.605468 3.148438-2.347657 4.0625-.972657 9.257812 3.074218 11.628906l6.878906 3.96875c-4.566406 6.183594-10.03125 11.648438-16.214843 16.214844l-3.96875-6.878906c-1.511719-2.664063-4.335938-4.308594-7.398438-4.316406-3.0625-.007813-5.894531 1.628906-7.417969 4.285156-1.527343 2.652344-1.511718 5.921875.039063 8.5625l4 6.949218c-7.050781 3.097657-14.53125 5.113282-22.1875 5.972657v-7.945313c0-4.714844-3.820313-8.535156-8.53125-8.535156-4.714844 0-8.535156 3.820312-8.535156 8.535156v8.03125c-7.652344-.863281-15.132813-2.875-22.183594-5.976562l4-6.945313c1.550781-2.640625 1.5625-5.910156.039063-8.566406-1.527344-2.652344-4.355469-4.289063-7.417969-4.28125s-5.886719 1.652344-7.402344 4.316406l-3.964844 6.875c-6.21875-4.5625-11.714843-10.035156-16.308593-16.230469zm0 0" fill="#ff3399"/><path d="m298.585938 125.332031c-1.394532-69.621093-58.230469-125.332031-127.863282-125.332031-69.632812 0-126.46875 55.710938-127.863281 125.332031l-33.597656 50.71875c-7.519531 11.875-10.582031 26.035157-8.632813 39.953125l36.496094 259.414063c3.058594 21.023437 21.050781 36.632812 42.289062 36.695312h182.699219c21.226563-.085937 39.195313-15.691406 42.25-36.695312l36.496094-259.414063c1.945313-13.980468-1.148437-28.195312-8.730469-40.105468zm25.328124 88.277344-36.5 259.410156c-1.824218 12.605469-12.605468 21.976563-25.34375 22.027344h-182.65625c-12.738281-.050781-23.519531-9.425781-25.34375-22.035156l-36.496093-259.414063c-1.378907-9.84375.761719-19.859375 6.050781-28.277344l21.570312-32.5625c11.839844 59.976563 64.390626 103.246094 125.527344 103.355469 4.710938 0 8.53125-3.820312 8.53125-8.535156 0-4.710937-3.820312-8.53125-8.53125-8.53125-57.296875-.050781-105.113281-43.757813-110.292968-100.820313-5.179688-57.0625 33.984374-108.667968 90.335937-119.03125 56.351563-10.363281 111.3125 23.925782 126.777344 79.097657 15.460937 55.167969-13.671875 113.03125-67.199219 133.464843-4.40625 1.683594-6.613281 6.617188-4.929688 11.019532 1.683594 4.40625 6.617188 6.613281 11.019532 4.929687 41.101562-15.949219 71.199218-51.800781 79.78125-95.042969l21.546875 32.511719c5.351562 8.449219 7.53125 18.523438 6.152343 28.433594zm0 0" fill="#ff3399"/><path d="m299.917969 204.996094c-4.667969-.65625-8.984375 2.589844-9.644531 7.253906l-35.164063 248.664062h-168.773437l-35.164063-248.664062c-.378906-3.058594-2.382813-5.675781-5.234375-6.847656-2.855469-1.167969-6.117188-.707032-8.535156 1.207031-2.417969 1.914063-3.613282 4.984375-3.128906 8.03125l36.199218 256c.59375 4.207031 4.199219 7.335937 8.449219 7.339844h183.601563c4.25-.003907 7.851562-3.132813 8.449218-7.339844l36.199219-256c.65625-4.664063-2.589844-8.984375-7.253906-9.644531zm0 0" fill="#ff3399"/><path d="m119.523438 435.3125c.472656 0 .949218-.039062 1.414062-.121094 4.648438-.777344 7.785156-5.175781 7.007812-9.820312l-25.601562-153.601563c-.875-4.546875-5.21875-7.570312-9.789062-6.804687-4.566407.765625-7.691407 5.035156-7.039063 9.621094l25.601563 153.601562c.6875 4.109375 4.238281 7.121094 8.40625 7.125zm0 0" fill="#ff3399"/><path d="m220.515625 435.191406c.464844.082032.933594.121094 1.40625.121094 4.164063-.003906 7.71875-3.015625 8.40625-7.125l25.601563-153.601562c.582031-3.042969-.527344-6.160157-2.902344-8.152344-2.375-1.988282-5.640625-2.535156-8.53125-1.425782-2.894532 1.109376-4.957032 3.695313-5.394532 6.761719l-25.601562 153.601563c-.371094 2.230468.15625 4.523437 1.472656 6.363281 1.316406 1.84375 3.308594 3.085937 5.542969 3.457031zm0 0" fill="#ff3399"/><path d="m170.722656 435.3125c4.710938 0 8.53125-3.820312 8.53125-8.535156v-136.53125c0-4.714844-3.820312-8.535156-8.53125-8.535156-4.714844 0-8.535156 3.820312-8.535156 8.535156v136.53125c0 4.714844 3.820312 8.535156 8.535156 8.535156zm0 0" fill="#ff3399"/><path d="m170.722656 153.710938c12.453125.023437 23.109375-8.9375 25.21875-21.210938s-4.9375-24.28125-16.6875-28.417969v-18.636719c0-4.710937-3.820312-8.53125-8.53125-8.53125-4.714844 0-8.535156 3.820313-8.535156 8.53125v18.636719c-11.746094 4.136719-18.792969 16.144531-16.683594 28.417969s12.765625 21.234375 25.21875 21.210938zm0-34.132813c4.710938 0 8.53125 3.820313 8.53125 8.535156 0 4.710938-3.820312 8.53125-8.53125 8.53125-4.714844 0-8.535156-3.820312-8.535156-8.53125 0-4.714843 3.820312-8.535156 8.535156-8.535156zm0 0" fill="#ff3399"/></svg>
