<?xml version="1.0" encoding="iso-8859-1"?>
<!-- Generator: Adobe Illustrator 19.0.0, SVG Export Plug-In . SVG Version: 6.00 Build 0)  -->
<svg xmlns="http://www.w3.org/2000/svg" xmlns:xlink="http://www.w3.org/1999/xlink" version="1.1" id="Capa_1" x="0px" y="0px" viewBox="0 0 480.006 480.006" style="enable-background:new 0 0 480.006 480.006;" xml:space="preserve" width="512px" height="512px">
<g>
	<g>
		<path d="M295.682,37.126c-20.324-8.66-43.82,0.796-52.48,21.12l-9.408,22.072c-8.633,20.322,0.811,43.798,21.112,52.48    c20.324,8.654,43.816-0.805,52.472-21.128l9.424-22.064C325.461,69.281,316.006,45.785,295.682,37.126z M302.074,83.326    l-9.408,22.08c-5.196,12.194-19.294,17.868-31.488,12.672c-12.194-5.196-17.868-19.294-12.672-31.488l9.408-22.08    c5.196-12.194,19.294-17.868,31.488-12.672C301.596,57.033,307.27,71.131,302.074,83.326z" fill="#ff3399"/>
	</g>
</g>
<g>
	<g>
		<path d="M373.245,218.478c-2.941-7.64-8.096-14.228-14.804-18.921l-65.872-46.104l-0.08-0.048    c-0.072-0.048-0.168-0.08-0.248-0.128c-0.73-0.451-1.526-0.783-2.36-0.984c-0.12,0-0.208-0.104-0.328-0.128l-76.344-15.272    l-32.28-58.88l62.944-35.064c3.862-2.147,5.251-7.018,3.104-10.879c0,0,0,0,0-0.001L231.426,4.118    c-2.132-3.839-6.959-5.242-10.816-3.144l-73.76,40.04c-22.287,12.084-30.558,39.947-18.474,62.234    c0.414,0.764,0.85,1.515,1.306,2.254l38.32,72.488v53.448l-7.888,55.2l-31.272,148.568l-16.64,11.088    c-8.457,5.635-10.744,17.058-5.109,25.515c3.412,5.12,9.156,8.196,15.309,8.197h45.6c3.594,0.002,6.749-2.393,7.712-5.856    l38.368-138.144h3.84l38.4,138.144c0.96,3.451,4.098,5.844,7.68,5.856h45.6c10.162,0.045,18.436-8.156,18.481-18.318    c0.027-6.208-3.077-12.012-8.257-15.434l-16.688-11.12l-29.832-134.136l76.336-29.36    C370.839,263.476,381.407,239.676,373.245,218.478z M293.698,173.758l20.976,14.688l-11.64,15.56l-12.992-9.488L293.698,173.758z     M286.938,212.046l25.152,18.28l-30.792,13.68L286.938,212.046z M143.506,97.47c-4.394-6.936-5.764-15.366-3.792-23.336    c2.046-8.138,7.404-15.048,14.776-19.056l66.8-36.264l7.832,14.048l-62.904,35.04c-3.844,2.141-5.238,6.983-3.12,10.84    l17.464,31.848l-21.56,16.168L143.506,97.47z M161.954,464.006h-39.552c-1.325,0.045-2.435-0.992-2.481-2.317    c-0.029-0.86,0.404-1.671,1.137-2.123h0.024l17.32-11.56h28L161.954,464.006z M170.786,432.006h-24.928l15.16-72h29.792    L170.786,432.006z M231.714,325.861c-0.963-3.463-4.118-5.858-7.712-5.856h-16c-3.594-0.002-6.749,2.393-7.712,5.856l-5.04,18.144    h-30.864l10.016-47.44l41.544,3.464l41.552,3.464l8.976,40.512h-29.72L231.714,325.861z M310.922,459.566    c1.127,0.698,1.475,2.177,0.778,3.304c-0.448,0.724-1.246,1.156-2.097,1.136h-39.52l-4.48-16h28L310.922,459.566z     M285.994,432.006h-24.8l-20-72h28.8L285.994,432.006z M257.394,287.43l-26.76-2.232l-53.512-4.464l6.8-47.592    c0.055-0.376,0.081-0.756,0.08-1.136v-56c-0.001-1.302-0.319-2.585-0.928-3.736l-16.504-31.192l21.752-16.32l12.664,23.096    c1.136,2.073,3.13,3.537,5.448,4l72.336,14.472L257.394,287.43z M343.89,256.71l-69.552,26.752l3.616-20.456l53.296-23.688    c4.038-1.793,5.858-6.52,4.066-10.558c-0.571-1.286-1.471-2.399-2.61-3.226l-16.704-12.16l11.784-15.768l21.496,15.048    c6.72,4.706,10.721,12.396,10.72,20.6C359.955,243.638,353.566,252.939,343.89,256.71z" fill="#ff3399"/>
	</g>
</g>
<g>
</g>
<g>
</g>
<g>
</g>
<g>
</g>
<g>
</g>
<g>
</g>
<g>
</g>
<g>
</g>
<g>
</g>
<g>
</g>
<g>
</g>
<g>
</g>
<g>
</g>
<g>
</g>
<g>
</g>
</svg>
