<?xml version="1.0" encoding="iso-8859-1"?>
<!-- Generator: Adobe Illustrator 19.0.0, SVG Export Plug-In . SVG Version: 6.00 Build 0)  -->
<svg xmlns="http://www.w3.org/2000/svg" xmlns:xlink="http://www.w3.org/1999/xlink" version="1.1" id="Capa_1" x="0px" y="0px" viewBox="0 0 512 512" style="enable-background:new 0 0 512 512;" xml:space="preserve" width="512px" height="512px">
<g>
	<g>
		<path d="M446.956,135.742H291.242c7.194-8.48,11.546-19.443,11.546-31.409c0-2.592-0.212-5.182-0.619-7.729    c1.283-0.867,2.459-1.91,3.463-3.146c3.047-3.752,4.224-8.621,3.229-13.359c-2.548-12.142-8.277-22.563-16.019-30.201    c3.589-5.254,5.524-11.457,5.524-17.959C298.365,14.327,284.038,0,266.428,0c-17.61,0-31.938,14.327-31.938,31.938    c0,2.083,0.207,4.126,0.596,6.128c-17.35,5.235-31.233,21.069-35.632,42.033c-0.994,4.738,0.183,9.607,3.229,13.359    c1.008,1.241,2.189,2.287,3.478,3.156c-0.407,2.546-0.634,5.127-0.634,7.719c0,11.965,4.352,22.928,11.545,31.408H65.04    c-11.747,0-21.304,9.557-21.304,21.304s9.557,21.304,21.304,21.304h70.465c4.142,0,7.5-3.358,7.5-7.5c0-4.142-3.358-7.5-7.5-7.5    H65.04c-3.476,0-6.304-2.828-6.304-6.304s2.828-6.304,6.304-6.304h142.328v12.608h-37.685c-4.142,0-7.5,3.358-7.5,7.5    c0,4.142,3.358,7.5,7.5,7.5h37.685v26.747c0,4.142,3.358,7.5,7.5,7.5c4.142,0,7.5-3.358,7.5-7.5v-54.355h15.041    c0.569,0,1.12-0.069,1.652-0.189c4.756,1.557,9.827,2.411,15.097,2.411c5.163,0,10.138-0.816,14.811-2.314    c0.365,0.055,0.736,0.092,1.117,0.092h19.544v102.014h-67.262v-13.481c0-4.142-3.358-7.5-7.5-7.5c-4.142,0-7.5,3.358-7.5,7.5    v21.079c-0.031,6.014-2.937,11.718-7.791,15.274l-44.198,32.381c-13.668,10.014-20.681,26.382-18.303,42.717    c2.316,15.907,12.634,28.943,27.601,34.871l58.597,23.209l-1.294,2.784c-6.671,14.354-0.422,31.459,13.931,38.131l1.001,0.465    c1.696,0.789,3.506,1.185,5.323,1.185c1.463,0,2.932-0.257,4.347-0.774c3.173-1.16,5.704-3.485,7.127-6.548l8.312-17.883v46.557    c-2.625,2.319-4.292,5.699-4.292,9.468v14.569c0,8.404,6.837,15.241,15.24,15.241h50.915c6.973,0,12.646-5.673,12.646-12.646    v-1.104c0-15.828-12.878-28.706-28.706-28.706h-3.194l-0.003-155.275c0-4.142-3.358-7.5-7.5-7.5c-4.143,0-7.5,3.358-7.5,7.5    l0.003,155.275h-12.608V322.217c0-12.407-10.094-22.5-22.5-22.5h-8.967v-29.033h44.073l0.001,9.409c0,4.142,3.358,7.5,7.5,7.5    c4.143,0,7.5-3.358,7.5-7.5l-0.001-16.833c0-0.025,0.004-0.049,0.004-0.074V178.35h142.327c11.747,0,21.305-9.557,21.305-21.304    C468.264,145.299,458.703,135.742,446.956,135.742z M272.729,484.545h35.095c7.135,0,13.015,5.482,13.649,12.455h-48.504    c-0.133,0-0.24-0.108-0.24-0.241V484.545z M170.199,371.649c-9.914-3.926-16.748-12.557-18.28-23.085    c-1.576-10.828,3.146-21.731,12.325-28.456l44.198-32.381c5.837-4.276,10.1-10.291,12.281-17.042h9.83v29.032h-4.831    c-8.055,0-15.747,2.516-22.244,7.276l-32.382,23.724c-5.014,3.673-7.535,9.546-6.744,15.71s4.712,11.211,10.49,13.5l60.087,23.8    l-5.323,11.452L170.199,371.649z M261.567,391.555l-20.445,43.984c-6.056-3.514-8.548-11.156-5.541-17.627l14.792-31.825    l11.076,5.148C261.57,391.291,261.623,391.435,261.567,391.555z M254.519,314.716c4.137,0.001,7.501,3.366,7.501,7.501v52.742    l-7.458-3.467c-3.063-1.423-6.497-1.569-9.669-0.411c-0.192,0.07-0.373,0.158-0.56,0.236l-63.966-25.336    c-0.349-0.139-1-0.396-1.136-1.463c-0.137-1.066,0.427-1.479,0.73-1.701l32.382-23.725c3.908-2.863,8.534-4.376,13.378-4.376    H254.519z M266.428,15c9.34,0,16.938,7.598,16.938,16.938c0,3.29-0.942,6.431-2.681,9.134c-2.794-1.424-5.72-2.55-8.742-3.363    l1.21-2.45c1.834-3.714,0.311-8.211-3.403-10.046c-3.713-1.834-8.212-0.31-10.046,3.403l-3.746,7.583h-5.911    c-0.358-1.379-0.556-2.801-0.556-4.262C249.49,22.598,257.088,15,266.428,15z M254.156,137.963    c-18.544,0-33.629-15.086-33.629-33.63c0-1.68,0.139-3.35,0.384-5h66.504c0.245,1.648,0.372,3.323,0.372,5    C287.787,122.877,272.7,137.963,254.156,137.963z M243.447,84.333v-7.122c0-4.142-3.358-7.5-7.5-7.5c-4.142,0-7.5,3.358-7.5,7.5    v7.122h-13.423c-0.105,0-0.427,0-0.696-0.331c-0.194-0.238-0.259-0.515-0.194-0.824C218.085,64.35,231.887,51.2,247.697,51.2    h12.89c0.009,0,0.017,0.001,0.026,0.001c0.006,0,0.011-0.001,0.017-0.001c15.806,0.006,29.601,13.154,33.551,31.979    c0.064,0.309,0,0.586-0.193,0.823c-0.269,0.331-0.591,0.331-0.696,0.331H243.447z M446.956,163.35H304.629v-12.608h142.327    c3.477,0,6.305,2.828,6.305,6.304C453.261,160.522,450.433,163.35,446.956,163.35z" fill="#ff3399"/>
	</g>
</g>
<g>
	<g>
		<path d="M281.512,182.283c-1.592-3.824-5.986-5.636-9.806-4.042c-16.132,6.713-30.844,0.253-31.147,0.118    c-3.742-1.732-8.187-0.118-9.94,3.62c-1.76,3.75-0.146,8.216,3.604,9.976c0.554,0.26,9.486,4.351,22.003,4.351    c6.364,0,13.658-1.059,21.244-4.217C281.294,190.497,283.104,186.107,281.512,182.283z" fill="#ff3399"/>
	</g>
</g>
<g>
	<g>
		<path d="M238.011,102.832h-0.092c-0.014,0-0.027,0-0.041,0c-4.123,0-7.431,3.332-7.453,7.46c-0.022,4.142,3.364,7.518,7.506,7.54    c0.014,0,0.027,0,0.041,0c4.123,0,7.477-3.332,7.499-7.46C245.493,106.229,242.153,102.854,238.011,102.832z" fill="#ff3399"/>
	</g>
</g>
<g>
	<g>
		<path d="M270.217,102.832h-0.092c-0.014,0-0.027,0-0.041,0c-4.123,0-7.431,3.332-7.453,7.46c-0.021,4.142,3.364,7.518,7.506,7.54    c0.014,0,0.027,0,0.041,0c4.123,0,7.477-3.332,7.499-7.46C277.698,106.229,274.358,102.854,270.217,102.832z" fill="#ff3399"/>
	</g>
</g>
<g>
</g>
<g>
</g>
<g>
</g>
<g>
</g>
<g>
</g>
<g>
</g>
<g>
</g>
<g>
</g>
<g>
</g>
<g>
</g>
<g>
</g>
<g>
</g>
<g>
</g>
<g>
</g>
<g>
</g>
</svg>
