<?xml version="1.0"?>
<svg xmlns="http://www.w3.org/2000/svg" height="512px" viewBox="0 -6 512.00178 512" width="512px"><path d="m252.738281 359.039062c4.140625 0 7.5-3.355468 7.5-7.5v-10.082031c0-4.140625-3.359375-7.5-7.5-7.5-4.144531 0-7.5 3.359375-7.5 7.5v10.082031c0 4.144532 3.355469 7.5 7.5 7.5zm0 0" fill="#ff3399"/><path d="m364.148438 359.039062c4.140624 0 7.5-3.355468 7.5-7.5v-10.082031c0-4.140625-3.359376-7.5-7.5-7.5-4.144532 0-7.5 3.359375-7.5 7.5v10.082031c0 4.144532 3.355468 7.5 7.5 7.5zm0 0" fill="#ff3399"/><path d="m308.441406 364.421875c7.523438 0 14.59375-3.152344 19.394532-8.648437 2.726562-3.117188 2.410156-7.855469-.710938-10.582032-3.117188-2.726562-7.855469-2.40625-10.582031.710938-1.953125 2.238281-4.90625 3.519531-8.101563 3.519531-3.195312 0-6.148437-1.28125-8.101562-3.519531-2.726563-3.117188-7.464844-3.4375-10.582032-.710938-3.121093 2.726563-3.4375 7.464844-.710937 10.582032 4.800781 5.496093 11.871094 8.648437 19.394531 8.648437zm0 0" fill="#ff3399"/><path d="m327.050781 40.765625c-14.742187 0-26.734375 11.996094-26.734375 26.738281 0 14.742188 11.992188 26.734375 26.734375 26.734375h20.054688c.6875 4.34375 1.800781 11.242188 3.605469 22.269531l-46.425782 47.464844c-2.898437 2.960938-2.84375 7.710938.117188 10.609375 2.960937 2.894531 7.707031 2.84375 10.605468-.121093l38.574219-39.4375 7.523438 45.074218-87.296875 89.667969-44.597656-7.578125 65.003906-66.464844c2.894531-2.960937 2.84375-7.710937-.117188-10.609375-2.960937-2.894531-7.710937-2.84375-10.605468.121094l-72.277344 73.894531-52.058594-8.847656c-5.097656-.867188-10.273438-1.308594-15.386719-1.308594-1.902343 0-3.800781.070313-5.691406.191406l-27-67.234374h15.789063c17.5 0 29.070312-18.648438 22.242187-34.417969-6.480469-15.054688-21.433594-25.113281-38.09375-25.625-23.003906-.707031-28.476563-3.625-34.269531-6.71875-7.511719-4.007813-15.8125-6.351563-24.414063-6.351563-27.941406 0-50.671875 22.746094-50.671875 50.703125 0 12.359375 10.054688 22.414063 22.410156 22.414063h29.382813l10.539063 26.246094h-12.777344c-3.03125-5.59375-8.925782-9.320313-15.671875-9.320313-.597657 0-1.207031.03125-1.804688.09375l-17.667969 1.777344c-9.796874.988281-16.964843 9.761719-15.9804682 19.558593 0 0 2.8515622 28.308594 2.8554682 28.347657.972657 9.644531 9.929688 16.945312 19.558594 15.980469l17.667969-1.78125c6.898437-.695313 12.476563-5.253907 14.839844-11.304688l26.394531.007812 6.722656 16.734376c-3.585937 2.804687-6.976562 5.886718-10.128906 9.230468-17.261719 18.316406-25.945312 42.265625-24.453125 67.441406 1.207031 20.386719 9.132813 38.875 21.515625 53.390626l-45.582031 46.609374h-2.382813c-13.757812 0-24.953125 11.195313-24.953125 24.957032v12.492187c0 9.257813 7.53125 16.789063 16.789063 16.789063h92.992187c9.257813 0 16.789063-7.53125 16.789063-16.789063v-12.492187c0-7.992188-3.78125-15.117188-9.644532-19.6875l19.65625-20.1875c1.699219.09375 3.40625.15625 5.128907.15625 3.140625 0 6.324219-.175782 9.476562-.5-.566406 4.25.132813 8.570312 2.0625 12.507812 3.714844 7.566406 11.261719 12.265625 19.695313 12.265625 3.367187 0 6.613281-.753906 9.652344-2.246093l52.898437-25.96875c3.539063-1.738282 6.460937-4.347657 8.582031-7.546876l79.871094-9.464843c19.492188 18.957031 45.039062 29.355469 72.375 29.355469 1.910156 0 3.832031-.0625 5.753906-.167969l1.089844 6.527343h-5.019531c-13.761719 0-24.957031 11.195313-24.957031 24.957032v12.492187c0 9.257813 7.535156 16.792969 16.792968 16.792969h92.988282c9.261718 0 16.792968-7.535156 16.792968-16.792969v-12.492187c0-13.761719-11.195312-24.957032-24.957031-24.957032h-12.429687l-4.449219-26.597656c11.238281-8.296875 20.839843-18.898437 27.933593-30.914062 2.105469-3.566406.925782-8.164063-2.640624-10.269532-3.566407-2.109374-8.167969-.925781-10.273438 2.640626-4.757812 8.054687-10.828125 15.371093-17.859375 21.578124l-24.921875-148.988281c32.949219 13.523438 55.082031 45.835938 55.082031 82.265625 0 6.617188-.730469 13.210938-2.167969 19.609375-.910156 4.039063 1.628907 8.050781 5.667969 8.960938 4.046875.910156 8.058594-1.628907 8.964844-5.667969 1.683594-7.476562 2.535156-15.179688 2.535156-22.902344 0-45.648437-29.742187-85.75-72.914062-99.207031l-8.640625-51.648437h21.933594c3.261718 5.703124 9.375 9.425781 16.289062 9.425781 1.039062 0 18.785156-2.878907 18.796875-2.882813 10.101563-1.691406 17.121094-11.523437 15.429687-21.628906 0 0-8.875-53.066406-8.886718-53.128906-1.679688-10.035156-11.59375-17.113282-21.628906-15.429688 0 0-15.667969 2.621094-15.683594 2.621094-6.910156 1.15625-12.707032 6.21875-14.816406 12.894531h-22.832032l-3.582031-21.433593h4.164063c24.207031 0 47.652343-8.683594 66.023437-24.449219l26.644531-22.875c11.1875-9.601563 12.476563-26.515625 2.875-37.703125-9.488281-11.050782-26.660156-12.351563-37.707031-2.871094l-26.644531 22.871094c-8.675782 7.449218-19.753906 11.550781-31.191406 11.550781zm-310.390625 118.753906c0-19.6875 16.003906-35.703125 35.675782-35.703125 6.125 0 11.972656 1.71875 17.351562 4.585938 7.058594 3.765625 14.359375 7.664062 40.867188 8.476562 10.867187.335938 20.59375 6.835938 24.78125 16.574219 2.675781 6.214844-1.484376 13.476563-8.46875 13.476563h-102.792969c-4.085938 0-7.414063-3.324219-7.414063-7.410157zm84.257813 100.351563-31.296875-77.9375h25.292968l27.921876 69.527344c-7.613282 1.835937-15.003907 4.671874-21.917969 8.410156zm-62.246094-11.960938-17.671875 1.78125c-1.59375.160156-2.972656-.992187-3.128906-2.558594l-2.855469-28.347656c-.15625-1.570312.992187-2.972656 2.558594-3.128906l17.667969-1.78125c.101562-.007812.203124-.015625.300781-.015625 1.464843 0 2.679687 1.105469 2.828125 2.574219l2.855468 28.347656c.160157 1.566406-.988281 2.972656-2.554687 3.128906zm36.710937-11.371094-19.910156-.007812-1.34375-13.351562h15.890625zm411.53125 233.363282v12.488281c0 .988281-.804687 1.792969-1.792968 1.792969h-92.988282c-.988281 0-1.792968-.804688-1.792968-1.792969v-12.488281c0-5.492188 4.464844-9.957032 9.957031-9.957032h76.660156c5.488281 0 9.957031 4.464844 9.957031 9.957032zm-62.625-174.558594-29.574218-5.027344c-8.679688-52.152344-27.339844-164.492187-32.445313-196.078125h28.378907zm-45.230468-7.6875-50.039063-8.503906c11.238281-14.03125 26.523438-24.414063 43.675781-29.621094zm33.785156 111.296875 28.214844-3.34375 8.253906 49.335937h-28.792969zm-48.613281-200.558594c1.820312 10.957031 3.816406 23.003907 6.015625 36.234375-23.425782 6.617188-44.007813 21.449219-57.777344 41.710938l-20.695312-3.519532zm-250.515625 283.996094c0 .988281-.800782 1.792969-1.789063 1.792969h-92.992187c-.988282 0-1.789063-.804688-1.789063-1.792969v-12.488281c0-5.492188 4.464844-9.957032 9.953125-9.957032h76.664063c5.410156 0 9.957031 4.550782 9.957031 9.957032v12.488281zm-10.449219-37.445313h-52.804687l35.234374-36.019531c10.132813 8.511719 22.125 14.789063 34.917969 18.199219zm40.589844-29.789062c-19.363281-.097656-38.492188-7.75-52.464844-21.300781-13.132813-12.738281-21.707031-30.21875-22.867187-49.796875-1.246094-21.007813 5.996093-40.988282 20.390624-56.265625 14.269532-15.136719 34.261719-23.820313 54.859376-23.820313 4.273437 0 8.601562.367188 12.871093 1.09375l270.261719 45.941406 11.675781 69.792969s-188.929687 22.382813-188.929687 22.382813c.117187-.015625-1-3.945313-1.117188-4.261719-4.4375-11.976563-18.738281-17.679687-30.21875-12.046875l-9.164062 4.496094-11.027344-16.621094c6.976562-9.992188 10.773438-21.941406 10.773438-34.210938 0-32.96875-26.820313-59.789062-59.789063-59.789062s-59.792969 26.820312-59.792969 59.789062c0 32.972657 26.824219 59.792969 59.792969 59.792969 4.214844 0 8.390625-.449219 12.480469-1.320312l7.863281 11.847656s-4.566406 2.25-4.835937 2.398437c-6.886719.816407-13.808594 1.933594-20.761719 1.898438zm45.113281-54.203125-21.585938-32.535156c-5.910156-8.90625-17.902343-12.289063-27.589843-7.730469-11.929688 5.613281-16.246094 20.984375-8.953125 31.976562l21.59375 32.542969c-1.105469.082031-2.210938.125-3.324219.125-24.695313 0-44.789063-20.09375-44.789063-44.792969 0-24.695312 20.09375-44.789062 44.789063-44.789062 24.699219 0 44.789063 20.09375 44.789063 44.789062.003906 7.140626-1.710938 14.136719-4.929688 20.414063zm-45.628906-16.582031c-2.113282-3.183594-1.242188-7.492188 1.9375-9.601563 3.113281-2.066406 7.542968-1.167969 9.605468 1.941407l40.691407 61.328124-12.542969 6.15625zm87.695312 68.40625s-52.753906 25.898437-52.902344 25.96875c-3.40625 1.671875-7.605468.226562-9.269531-3.164063-1.628906-3.3125-.148437-7.640625 3.164063-9.273437 0 0 52.824218-25.929688 52.902344-25.96875 7.992187-3.925782 14.105468 8.507812 6.105468 12.4375zm115.417969-5.957032 51.476563-6.097656 3.808593 22.800782c-20.179687.738281-39.402343-5.183594-55.285156-16.703126zm100.671875-287.695312c.570312-.796875 1.433594-1.378906 2.441406-1.550781l15.679688-2.621094c2.046875-.335937 4.019531 1.058594 4.359375 3.109375l8.886719 53.132812c.339843 2.03125-1.082032 4.015626-3.109376 4.355469l-15.683593 2.625c-2.082031.347657-4.015625-1.066406-4.355469-3.109375 0 0-8.835938-52.816406-8.890625-53.136718-.167969-1.011719.105469-2.011719.671875-2.804688zm-14.417969 11.546875 6.378907 38.128906h-20.753907l-6.378906-38.128906zm18.277344-90.074219s26.628906-22.859375 26.644531-22.875c4.859375-4.167968 12.382813-3.597656 16.550782 1.261719 4.214843 4.910156 3.652343 12.332031-1.257813 16.550781l-26.648437 22.871094c-15.648438 13.433594-35.625 20.832031-56.25 20.832031h-82.972657c-6.46875 0-11.734375-5.265625-11.734375-11.734375 0-6.472656 5.265625-11.738281 11.734375-11.738281h82.972657c15.019531 0 29.566406-5.386719 40.960937-15.167969zm0 0" fill="#ff3399"/></svg>
